<?xml version="1.0" standalone="no"?>
<!DOCTYPE svg PUBLIC "-//W3C//DTD SVG 20010904//EN"
 "http://www.w3.org/TR/2001/REC-SVG-20010904/DTD/svg10.dtd">
<svg version="1.0" xmlns="http://www.w3.org/2000/svg"
 width="383.000000pt" height="132.000000pt" viewBox="0 0 383.000000 132.000000"
 preserveAspectRatio="xMidYMid meet">

<g transform="translate(0.000000,132.000000) scale(0.100000,-0.100000)"
fill="#000000" stroke="none">
<path d="M2760 1294 c-110 -30 -200 -109 -253 -223 -28 -58 -31 -76 -31 -151
1 -176 99 -314 261 -372 46 -16 74 -19 134 -15 191 13 312 134 333 335 l5 52
-149 0 -150 0 0 -40 0 -40 101 0 101 0 -6 -25 c-19 -76 -66 -134 -135 -169
-66 -33 -108 -38 -175 -21 -231 60 -308 363 -133 522 61 54 120 77 202 78 61
0 78 -5 133 -34 35 -19 72 -46 83 -60 l20 -25 32 33 32 32 -40 36 c-51 44 -99
69 -172 88 -70 18 -121 18 -193 -1z"/>
<path d="M113 1210 l106 -80 856 0 855 0 0 80 0 80 -962 0 -961 0 106 -80z"/>
<path d="M2220 920 l0 -370 45 0 45 0 0 370 0 370 -45 0 -45 0 0 -370z"/>
<path d="M3268 1258 c11 -18 65 -112 121 -209 l101 -176 0 -161 0 -162 45 0
45 0 0 163 0 162 120 205 120 205 -46 3 c-26 2 -51 -1 -56 -6 -5 -5 -46 -73
-91 -151 -46 -79 -87 -144 -91 -145 -5 0 -47 67 -95 149 l-87 150 -53 3 -53 3
20 -33z"/>
<path d="M401 996 c2 -2 49 -38 103 -80 l99 -76 664 0 663 0 0 80 0 80 -767 0
c-421 0 -764 -2 -762 -4z"/>
<path d="M790 705 c0 -3 45 -38 100 -80 l101 -75 469 0 470 0 0 78 0 77 -570
2 c-314 1 -570 0 -570 -2z"/>
<path d="M1840 279 c-29 -68 -57 -128 -60 -132 -4 -4 -31 49 -61 118 -29 69
-56 125 -59 125 -4 0 -19 -67 -34 -150 -15 -82 -30 -159 -33 -170 -4 -15 0
-20 15 -20 18 0 22 12 37 97 25 148 24 148 74 31 24 -57 47 -109 51 -116 4 -8
26 31 55 98 26 61 51 107 55 103 4 -4 15 -54 25 -110 15 -87 21 -103 37 -103
24 0 23 5 -15 194 l-33 159 -54 -124z"/>
<path d="M2167 393 c-6 -10 -119 -256 -143 -311 -13 -30 -13 -32 6 -32 14 0
27 14 42 45 l22 45 80 0 81 0 18 -45 c14 -32 25 -45 39 -45 25 0 24 1 -64 192
-78 169 -74 163 -81 151z m63 -210 c0 -9 -18 -13 -60 -13 -33 0 -60 2 -60 5 0
3 14 36 31 73 l31 67 29 -60 c15 -33 28 -66 29 -72z"/>
<path d="M2390 224 c0 -162 1 -175 18 -172 14 3 18 16 20 76 2 39 6 72 10 72
5 0 31 -34 60 -75 35 -51 59 -75 72 -75 11 0 20 3 20 6 0 3 -23 37 -50 75
l-50 69 24 10 c53 20 75 104 39 149 -19 23 -75 40 -130 41 l-33 0 0 -176z
m120 118 c26 -21 30 -66 9 -87 -8 -8 -31 -17 -51 -20 l-38 -7 0 66 0 66 29 0
c16 0 39 -8 51 -18z"/>
<path d="M2700 225 c0 -168 1 -175 20 -175 19 0 20 7 20 175 0 168 -1 175 -20
175 -19 0 -20 -7 -20 -175z"/>
<path d="M2841 228 c-1 -171 0 -178 19 -178 18 0 20 8 22 128 l3 128 120 -127
c66 -70 123 -127 128 -128 4 -1 7 78 7 174 0 168 -1 175 -20 175 -19 0 -20 -7
-20 -132 l0 -132 -129 134 -130 135 0 -177z"/>
<path d="M3290 234 c-91 -201 -86 -184 -61 -184 14 0 26 13 40 45 l20 45 81 0
81 0 20 -45 c14 -32 26 -45 40 -45 12 0 19 4 17 9 -17 45 -154 341 -158 341
-3 -1 -39 -75 -80 -166z m113 14 c15 -35 27 -66 27 -70 0 -5 -27 -8 -60 -8
-33 0 -60 3 -60 8 0 12 54 132 60 132 3 0 18 -28 33 -62z"/>
<path d="M3640 393 c-32 -12 -60 -47 -60 -75 0 -46 17 -67 73 -92 29 -12 58
-30 65 -39 20 -24 10 -67 -20 -90 -23 -17 -30 -18 -57 -7 -17 7 -33 21 -36 31
-8 24 -35 25 -35 1 0 -34 47 -67 95 -67 53 0 92 32 101 82 8 44 -14 76 -74
107 -27 14 -54 31 -61 40 -19 23 -9 59 21 75 25 14 29 14 57 -7 20 -14 32 -18
37 -11 16 26 -67 67 -106 52z"/>
</g>
</svg>
